<svg xmlns="http://www.w3.org/2000/svg" version="1.1" xmlns:xlink="http://www.w3.org/1999/xlink" xmlns:svgjs="http://svgjs.dev/svgjs" width="2000" height="1500" viewBox="0 0 2000 1500"><rect width="2000" height="1500" fill="#4d1d3b"></rect><g transform="matrix(0.75,0,0,0.75,249.4787014815538,169.97004048582994)"><svg viewBox="0 0 319 247" data-background-color="#4d1d3b" preserveAspectRatio="xMidYMid meet" height="1548" width="2000" xmlns="http://www.w3.org/2000/svg" xmlns:xlink="http://www.w3.org/1999/xlink"><g id="tight-bounds" transform="matrix(1,0,0,1,0.110862818256237,-0.09999999999999432)"><svg viewBox="0 0 318.7782743634875 247.2" height="247.2" width="318.7782743634875"><g><svg viewBox="0 0 395.52 306.7101865559215" height="247.2" width="318.7782743634875"><g transform="matrix(1,0,0,1,0,194.29004902149015)"><svg viewBox="0 0 395.52 112.42013753443133" height="112.42013753443133" width="395.52"><g id="textblocktransform"><svg viewBox="0 0 395.52 112.42013753443133" height="112.42013753443133" width="395.52" id="textblock"><g><svg viewBox="0 0 395.52 59.58707423580786" height="59.58707423580786" width="395.52"><g transform="matrix(1,0,0,1,0,0)"><svg width="395.52" viewBox="2.93 -29.79 201.25 30.33" height="59.58707423580786" data-palette-color="#d5cfd8"><path d="M23.73-7.67L23.73-7.67Q23.73-12.01 19.04-14.65L19.04-14.65Q18.12-15.14 13.33-17.24L13.33-17.24Q8.98-19.09 7.86-21.04L7.86-21.04Q7.28-22.12 7.28-23.34L7.28-23.34Q7.28-26.61 10.45-27.88L10.45-27.88Q11.82-28.42 13.48-28.42L13.48-28.42Q17.58-28.42 19.73-25.63L19.73-25.63Q21.14-23.73 21.09-21L21.09-21 22.56-21 22.56-29.54Q21.39-29.54 21.19-28.81L21.19-28.81Q21.09-28.47 21.09-27.88L21.09-27.88Q17.63-29.79 13.28-29.79L13.28-29.79Q8.01-29.79 5.08-26.86L5.08-26.86Q3.13-24.8 3.13-22.07L3.13-22.07Q3.13-17.97 7.71-15.38L7.71-15.38Q8.54-14.94 13.28-12.89L13.28-12.89Q17.68-10.94 18.85-8.94L18.85-8.94Q19.48-7.81 19.48-6.49L19.48-6.49Q19.48-3.08 16.16-1.56L16.16-1.56Q14.6-0.88 12.7-0.88L12.7-0.88Q5.22-0.98 4.39-10.01L4.39-10.01 2.93-10.01 2.93 0.1Q4.1 0.1 4.3-0.59L4.3-0.59Q4.39-0.98 4.39-2L4.39-2Q8.15 0.49 12.94 0.49L12.94 0.49Q18.55 0.49 21.63-2.54L21.63-2.54Q23.73-4.69 23.73-7.67ZM37.16-1.22L37.16-1.22 34.96-1.22 34.96-11.77Q35.1-16.06 37.94-18.16L37.94-18.16Q39.26-19.14 40.57-19.14L40.57-19.14Q43.02-19.14 43.94-16.46L43.94-16.46Q44.33-15.28 44.33-13.82L44.33-13.82 44.33-4.15Q44.33-1.9 43.26-1.46L43.26-1.46Q42.58-1.22 40.92-1.22L40.92-1.22 40.92 0 51.41 0Q51.41-1.07 50.68-1.17L50.68-1.17Q50.49-1.22 50.19-1.22L50.19-1.22 48-1.22 48-13.33 48-13.72Q48.78-17.29 51.46-18.7L51.46-18.7Q52.49-19.19 53.42-19.19L53.42-19.19Q55.91-19.19 56.93-16.6L56.93-16.6Q57.42-15.38 57.42-13.82L57.42-13.82 57.42-4.15Q57.42-1.9 56.35-1.46L56.35-1.46Q55.66-1.22 54-1.22L54-1.22 54 0 64.79 0Q64.79-1.07 64.06-1.17L64.06-1.17Q63.86-1.22 63.57-1.22L63.57-1.22 61.08-1.22 61.08-13.33Q61.08-18.36 57.81-20.36L57.81-20.36Q56.35-21.24 54.64-21.24L54.64-21.24Q50.93-21.24 48.68-17.77L48.68-17.77Q48.09-16.89 47.7-15.92L47.7-15.92Q46.82-19.78 43.85-20.9L43.85-20.9Q42.97-21.24 42.04-21.24L42.04-21.24Q38.52-21.24 36.23-18.26L36.23-18.26Q35.4-17.19 34.91-15.87L34.91-15.87 34.71-20.75 27.63-20.75 27.63-19.53 31.3-19.53 31.3-4.15Q31.3-1.9 30.03-1.46L30.03-1.46Q29.29-1.22 27.63-1.22L27.63-1.22 27.63 0 38.38 0Q38.38-1.03 37.64-1.17L37.64-1.17Q37.4-1.22 37.16-1.22ZM85.1 0.49L85.1 0.49Q88.86 0.49 89.25-4.05L89.25-4.05Q89.3-4.35 89.3-4.59L89.3-4.59 88.03-4.64Q87.69-1.07 86.13-1.03L86.13-1.03Q84.86-1.12 84.81-3.56L84.81-3.56 84.81-13.87Q84.81-20.85 77.83-21.24L77.83-21.24Q77.39-21.24 76.95-21.24L76.95-21.24Q71.48-21.24 69.62-18.7L69.62-18.7Q69.04-17.87 69.04-17.04L69.04-17.04Q69.04-15.53 70.45-15.28L70.45-15.28Q70.7-15.23 70.94-15.23L70.94-15.23Q72.07-15.23 72.6-16.65L72.6-16.65Q73.29-18.46 73.53-18.8L73.53-18.8Q74.46-20.02 76.41-20.02L76.41-20.02Q81-19.73 81.15-14.99L81.15-14.99 81.15-11.91Q69.67-11.91 68.01-7.13L68.01-7.13Q67.72-6.2 67.72-5.13L67.72-5.13Q67.72-1.42 70.99-0.05L70.99-0.05Q72.31 0.49 73.77 0.49L73.77 0.49Q77.34 0.49 79.78-1.95L79.78-1.95Q80.66-2.88 81.1-3.91L81.1-3.91Q81.68 0.44 85.1 0.49ZM75.39-1.46L75.39-1.46Q72.41-1.46 71.72-4.44L71.72-4.44Q71.58-5.13 71.58-5.96L71.58-5.96Q71.58-9.23 75.34-10.11L75.34-10.11Q77.34-10.55 81.15-10.6L81.15-10.6 81.15-6.69Q80.41-3.32 77.58-1.95L77.58-1.95Q76.46-1.46 75.39-1.46ZM101.95-1.22L101.95-1.22 98.43-1.22 98.43-10.94Q98.43-15.38 101.16-18.07L101.16-18.07Q102.24-19.09 102.97-19.14L102.97-19.14Q103.8-19.14 104.48-17.92L104.48-17.92Q105.27-16.55 105.95-16.36L105.95-16.36Q106.24-16.26 106.54-16.26L106.54-16.26Q108-16.26 108.39-17.68L108.39-17.68Q108.49-17.97 108.49-18.26L108.49-18.26Q108.49-20.46 106.24-20.95L106.24-20.95Q105.75-21.04 105.31-21.04L105.31-21.04Q102.39-21.04 100.09-18.55L100.09-18.55Q99.02-17.38 98.38-15.92L98.38-15.92 98.19-20.75 91.11-20.75 91.11-19.53 94.77-19.53 94.77-4.15Q94.77-1.9 93.5-1.46L93.5-1.46Q92.77-1.22 91.11-1.22L91.11-1.22 91.11 0 103.17 0Q103.17-1.07 102.43-1.17L102.43-1.17Q102.24-1.22 101.95-1.22ZM109.71-20.75L109.71-19.53 113.12-19.53 113.12-5.76Q113.47 0.34 118.74 0.54L118.74 0.54Q123.23 0.54 124.36-4.98L124.36-4.98Q124.36-5.03 124.36-5.08L124.36-5.08 123.04-5.32Q121.82-1.27 119.47-0.93L119.47-0.93Q116.84-1.03 116.79-4.69L116.79-4.69 116.79-19.53 124.36-19.53 124.36-20.75 116.79-20.75 116.79-26.42 113.12-25.39 113.12-20.75 109.71-20.75ZM126.55-10.16L126.55-10.16Q126.55-4.25 130.9-1.32L130.9-1.32Q133.58 0.49 137 0.49L137 0.49Q142.08 0.49 144.67-3.08L144.67-3.08Q145.25-3.91 145.59-4.74L145.59-4.74 144.32-5.18Q142.52-1.32 138.37-0.93L138.37-0.93Q137.98-0.88 137.59-0.88L137.59-0.88Q134.12-0.88 132.17-4.35L132.17-4.35Q130.7-6.98 130.7-10.6L130.7-10.6Q130.7-16.99 134.07-19.14L134.07-19.14Q135.49-20.02 137.19-20.02L137.19-20.02Q139.83-20.02 140.37-17.97L140.37-17.97Q140.47-17.58 140.61-16.75L140.61-16.75Q140.91-14.79 141.69-14.31L141.69-14.31Q142.18-14.06 142.76-14.01L142.76-14.01Q144.42-13.92 144.86-15.38L144.86-15.38Q144.96-15.72 144.96-16.02L144.96-16.02Q144.96-18.51 141.78-20.12L141.78-20.12Q139.54-21.24 136.9-21.24L136.9-21.24Q130.36-21.24 127.77-15.92L127.77-15.92Q126.55-13.38 126.55-10.16ZM164.93 0.49L164.93 0.49Q168.69 0.49 169.08-4.05L169.08-4.05Q169.13-4.35 169.13-4.59L169.13-4.59 167.86-4.64Q167.51-1.07 165.95-1.03L165.95-1.03Q164.68-1.12 164.63-3.56L164.63-3.56 164.63-13.87Q164.63-20.85 157.65-21.24L157.65-21.24Q157.21-21.24 156.77-21.24L156.77-21.24Q151.3-21.24 149.45-18.7L149.45-18.7Q148.86-17.87 148.86-17.04L148.86-17.04Q148.86-15.53 150.28-15.28L150.28-15.28Q150.52-15.23 150.77-15.23L150.77-15.23Q151.89-15.23 152.43-16.65L152.43-16.65Q153.11-18.46 153.35-18.8L153.35-18.8Q154.28-20.02 156.24-20.02L156.24-20.02Q160.82-19.73 160.97-14.99L160.97-14.99 160.97-11.91Q149.5-11.91 147.84-7.13L147.84-7.13Q147.54-6.2 147.54-5.13L147.54-5.13Q147.54-1.42 150.82-0.05L150.82-0.05Q152.13 0.49 153.6 0.49L153.6 0.49Q157.16 0.49 159.6-1.95L159.6-1.95Q160.48-2.88 160.92-3.91L160.92-3.91Q161.51 0.44 164.93 0.49ZM155.21-1.46L155.21-1.46Q152.23-1.46 151.55-4.44L151.55-4.44Q151.4-5.13 151.4-5.96L151.4-5.96Q151.4-9.23 155.16-10.11L155.16-10.11Q157.16-10.55 160.97-10.6L160.97-10.6 160.97-6.69Q160.24-3.32 157.41-1.95L157.41-1.95Q156.28-1.46 155.21-1.46ZM181.77-1.22L181.77-1.22 178.25-1.22 178.25-10.94Q178.25-15.38 180.99-18.07L180.99-18.07Q182.06-19.09 182.8-19.14L182.8-19.14Q183.63-19.14 184.31-17.92L184.31-17.92Q185.09-16.55 185.77-16.36L185.77-16.36Q186.07-16.26 186.36-16.26L186.36-16.26Q187.82-16.26 188.21-17.68L188.21-17.68Q188.31-17.97 188.31-18.26L188.31-18.26Q188.31-20.46 186.07-20.95L186.07-20.95Q185.58-21.04 185.14-21.04L185.14-21.04Q182.21-21.04 179.91-18.55L179.91-18.55Q178.84-17.38 178.21-15.92L178.21-15.92 178.01-20.75 170.93-20.75 170.93-19.53 174.59-19.53 174.59-4.15Q174.59-1.9 173.32-1.46L173.32-1.46Q172.59-1.22 170.93-1.22L170.93-1.22 170.93 0 182.99 0Q182.99-1.07 182.26-1.17L182.26-1.17Q182.06-1.22 181.77-1.22ZM189.53-20.75L189.53-19.53 192.95-19.53 192.95-5.76Q193.29 0.34 198.56 0.54L198.56 0.54Q203.06 0.54 204.18-4.98L204.18-4.98Q204.18-5.03 204.18-5.08L204.18-5.08 202.86-5.32Q201.64-1.27 199.3-0.93L199.3-0.93Q196.66-1.03 196.61-4.69L196.61-4.69 196.61-19.53 204.18-19.53 204.18-20.75 196.61-20.75 196.61-26.42 192.95-25.39 192.95-20.75 189.53-20.75Z" opacity="1" transform="matrix(1,0,0,1,0,0)" fill="#d5cfd8" class="wordmark-text-0" data-fill-palette-color="primary" id="text-0"></path></svg></g></svg></g><g transform="matrix(1,0,0,1,64.86527999999998,73.65415237310044)"><svg viewBox="0 0 330.65472 38.765985161330896" height="38.765985161330896" width="330.65472"><g transform="matrix(1,0,0,1,0,0)"><svg width="330.65472" viewBox="0.49 -35.5 388.11 45.51" height="38.765985161330896" data-palette-color="#d5cfd8"><path d="M3.76-35.01L11.5-7.69 11.6-6.4 11.69-7.69 19.46-35.01 22.71-35.01 12.4 0 10.74 0 0.49-35.01 3.76-35.01ZM30.44-31.01L26.95-31.01 26.95-35.01 30.44-35.01 30.44-31.01ZM30.2 0L27.19 0 27.19-25 30.2-25 30.2 0ZM47.55-22.14L44.55-22.14Q43.65-22.14 42.85-21.8 42.06-21.46 41.47-20.87 40.89-20.29 40.55-19.49 40.2-18.7 40.2-17.8L40.2-17.8 40.2 0 37.2 0 37.2-25 38.2-25 39.84-22.46Q40.86-23.85 42.41-24.67 43.96-25.49 45.8-25.49L45.8-25.49 47.55-25.49 47.55-22.14ZM63.4 0L60.66 0Q59.29 0 58.09-0.51 56.88-1.03 55.99-1.93 55.1-2.83 54.57-4.03 54.05-5.22 54.05-6.59L54.05-6.59 54.05-22.14 49.55-22.14 49.55-25 54.05-25 54.05-31.01 57.05-31.49 57.05-25 63.4-25 63.4-22.14 57.05-22.14 57.05-6.45Q57.05-5.69 57.33-5.04 57.61-4.39 58.1-3.91 58.59-3.42 59.25-3.14 59.9-2.86 60.66-2.86L60.66-2.86 63.4-2.86 63.4 0ZM85.61 0L84.61 0 82.95-2.54Q81.92-1.15 80.39-0.33 78.85 0.49 77.02 0.49L77.02 0.49 76.26 0.49Q74.75 0.49 73.4-0.09 72.06-0.66 71.06-1.66 70.06-2.66 69.48-4 68.91-5.35 68.91-6.86L68.91-6.86 68.91-25 71.91-25 71.91-6.69Q71.91-5.79 72.26-4.99 72.6-4.2 73.18-3.61 73.77-3.03 74.56-2.69 75.36-2.34 76.26-2.34L76.26-2.34 78.26-2.34Q79.16-2.34 79.96-2.69 80.75-3.03 81.34-3.61 81.92-4.2 82.27-4.99 82.61-5.79 82.61-6.69L82.61-6.69 82.61-25 85.61-25 85.61 0ZM108.31 0L107.31 0 105.65-2.49Q104.63-1.15 103.09-0.33 101.55 0.49 99.72 0.49L99.72 0.49 98.96 0.49Q97.45 0.49 96.11-0.09 94.76-0.66 93.76-1.66 92.76-2.66 92.19-4 91.61-5.35 91.61-6.86L91.61-6.86 91.61-7.1Q91.61-8.62 92.19-9.96 92.76-11.3 93.76-12.3 94.76-13.31 96.11-13.88 97.45-14.45 98.96-14.45L98.96-14.45 105.31-14.45 105.31-18.31Q105.31-19.21 104.97-20.01 104.63-20.8 104.04-21.39 103.45-21.97 102.66-22.31 101.87-22.66 100.96-22.66L100.96-22.66 99.21-22.66Q98.3-22.66 97.51-22.31 96.72-21.97 96.13-21.39 95.54-20.8 95.2-20.01 94.86-19.21 94.86-18.31L94.86-18.31 94.86-17.41 91.86-17.9 91.86-18.14Q91.86-19.65 92.43-21 93.01-22.34 94.01-23.34 95.01-24.34 96.35-24.91 97.69-25.49 99.21-25.49L99.21-25.49 100.96-25.49Q102.48-25.49 103.82-24.91 105.16-24.34 106.16-23.34 107.17-22.34 107.74-21 108.31-19.65 108.31-18.14L108.31-18.14 108.31 0ZM105.31-6.69L105.31-12.11 98.96-12.11Q98.06-12.11 97.27-11.77 96.47-11.43 95.89-10.83 95.3-10.23 94.96-9.44 94.62-8.64 94.62-7.74L94.62-7.74 94.62-6.69Q94.62-5.79 94.96-4.99 95.3-4.2 95.89-3.61 96.47-3.03 97.27-2.69 98.06-2.34 98.96-2.34L98.96-2.34 100.96-2.34Q101.87-2.34 102.66-2.69 103.45-3.03 104.04-3.61 104.63-4.2 104.97-4.99 105.31-5.79 105.31-6.69L105.31-6.69ZM118.32 0L115.32 0 115.32-35.01 118.32-35.01 118.32 0ZM157.01-18.41L157.01 0 156.01 0 154.18-2.81Q153.03-1.29 151.4-0.4 149.76 0.49 147.76 0.49L147.76 0.49 145.93 0.49Q144.15 0.49 142.57-0.18 141-0.85 139.82-2.03 138.65-3.2 137.98-4.76 137.31-6.32 137.31-8.11L137.31-8.11 137.31-26.9Q137.31-28.69 137.98-30.25 138.65-31.81 139.82-32.98 141-34.16 142.57-34.83 144.15-35.5 145.93-35.5L145.93-35.5 148.42-35.5Q150.2-35.5 151.76-34.83 153.32-34.16 154.5-32.98 155.67-31.81 156.34-30.25 157.01-28.69 157.01-26.9L157.01-26.9 157.01-25.49 153.86-25 153.86-26.9Q153.86-28.08 153.42-29.09 152.98-30.1 152.23-30.86 151.47-31.62 150.46-32.06 149.44-32.5 148.27-32.5L148.27-32.5 146.07-32.5Q144.9-32.5 143.89-32.06 142.88-31.62 142.11-30.86 141.34-30.1 140.9-29.09 140.46-28.08 140.46-26.9L140.46-26.9 140.46-8.11Q140.46-6.93 140.9-5.92 141.34-4.91 142.11-4.14 142.88-3.37 143.89-2.93 144.9-2.49 146.07-2.49L146.07-2.49 148.27-2.49Q149.44-2.49 150.46-2.93 151.47-3.37 152.23-4.14 152.98-4.91 153.42-5.92 153.86-6.93 153.86-8.11L153.86-8.11 153.86-15.41 148.27-15.41 148.27-18.41 157.01-18.41ZM173.88-22.14L170.88-22.14Q169.97-22.14 169.18-21.8 168.39-21.46 167.8-20.87 167.21-20.29 166.87-19.49 166.53-18.7 166.53-17.8L166.53-17.8 166.53 0 163.53 0 163.53-25 164.53-25 166.16-22.46Q167.19-23.85 168.74-24.67 170.29-25.49 172.12-25.49L172.12-25.49 173.88-25.49 173.88-22.14ZM194.58-6.86L194.58-6.86Q194.58-5.35 194.01-4 193.43-2.66 192.43-1.66 191.43-0.66 190.09-0.09 188.74 0.49 187.23 0.49L187.23 0.49 185.23 0.49Q183.72 0.49 182.37-0.09 181.03-0.66 180.03-1.66 179.03-2.66 178.45-4 177.88-5.35 177.88-6.86L177.88-6.86 177.88-18.14Q177.88-19.65 178.45-21 179.03-22.34 180.03-23.34 181.03-24.34 182.37-24.91 183.72-25.49 185.23-25.49L185.23-25.49 187.23-25.49Q188.74-25.49 190.09-24.91 191.43-24.34 192.43-23.34 193.43-22.34 194.01-21 194.58-19.65 194.58-18.14L194.58-18.14 194.58-6.86ZM191.58-6.69L191.58-18.31Q191.58-19.21 191.23-20.01 190.89-20.8 190.31-21.39 189.72-21.97 188.93-22.31 188.13-22.66 187.23-22.66L187.23-22.66 185.23-22.66Q184.33-22.66 183.53-22.31 182.74-21.97 182.15-21.39 181.57-20.8 181.23-20.01 180.88-19.21 180.88-18.31L180.88-18.31 180.88-6.69Q180.88-5.79 181.23-4.99 181.57-4.2 182.15-3.61 182.74-3.03 183.53-2.69 184.33-2.34 185.23-2.34L185.23-2.34 187.23-2.34Q188.13-2.34 188.93-2.69 189.72-3.03 190.31-3.61 190.89-4.2 191.23-4.99 191.58-5.79 191.58-6.69L191.58-6.69ZM217.28-6.86L217.28-6.86Q217.28-5.35 216.71-4 216.13-2.66 215.13-1.66 214.13-0.66 212.79-0.09 211.45 0.49 209.93 0.49L209.93 0.49 207.93 0.49Q206.42 0.49 205.08-0.09 203.73-0.66 202.73-1.66 201.73-2.66 201.16-4 200.58-5.35 200.58-6.86L200.58-6.86 200.58-18.14Q200.58-19.65 201.16-21 201.73-22.34 202.73-23.34 203.73-24.34 205.08-24.91 206.42-25.49 207.93-25.49L207.93-25.49 209.93-25.49Q211.45-25.49 212.79-24.91 214.13-24.34 215.13-23.34 216.13-22.34 216.71-21 217.28-19.65 217.28-18.14L217.28-18.14 217.28-17.14 214.28-16.65 214.28-18.31Q214.28-19.21 213.94-20.01 213.6-20.8 213.01-21.39 212.42-21.97 211.63-22.31 210.84-22.66 209.93-22.66L209.93-22.66 207.93-22.66Q207.03-22.66 206.23-22.31 205.44-21.97 204.86-21.39 204.27-20.8 203.93-20.01 203.59-19.21 203.59-18.31L203.59-18.31 203.59-6.69Q203.59-5.79 203.93-4.99 204.27-4.2 204.86-3.61 205.44-3.03 206.23-2.69 207.03-2.34 207.93-2.34L207.93-2.34 209.93-2.34Q210.84-2.34 211.63-2.69 212.42-3.03 213.01-3.61 213.6-4.2 213.94-4.99 214.28-5.79 214.28-6.69L214.28-6.69 214.28-8.35 217.28-7.86 217.28-6.86ZM239.98-6.86L239.98-6.86Q239.98-5.35 239.41-4 238.84-2.66 237.84-1.66 236.84-0.66 235.49-0.09 234.15 0.49 232.64 0.49L232.64 0.49 230.63 0.49Q229.12 0.49 227.78-0.09 226.43-0.66 225.43-1.66 224.43-2.66 223.86-4 223.29-5.35 223.29-6.86L223.29-6.86 223.29-18.14Q223.29-19.65 223.86-21 224.43-22.34 225.43-23.34 226.43-24.34 227.78-24.91 229.12-25.49 230.63-25.49L230.63-25.49 232.64-25.49Q234.15-25.49 235.49-24.91 236.84-24.34 237.84-23.34 238.84-22.34 239.41-21 239.98-19.65 239.98-18.14L239.98-18.14 239.98-12.26 226.29-12.26 226.29-6.69Q226.29-5.79 226.63-4.99 226.97-4.2 227.56-3.61 228.14-3.03 228.94-2.69 229.73-2.34 230.63-2.34L230.63-2.34 232.64-2.34Q233.54-2.34 234.33-2.69 235.13-3.03 235.71-3.61 236.3-4.2 236.64-4.99 236.98-5.79 236.98-6.69L236.98-6.69 236.98-8.35 239.98-7.86 239.98-6.86ZM236.98-14.6L236.98-18.31Q236.98-19.21 236.64-20.01 236.3-20.8 235.71-21.39 235.13-21.97 234.33-22.31 233.54-22.66 232.64-22.66L232.64-22.66 230.63-22.66Q229.73-22.66 228.94-22.31 228.14-21.97 227.56-21.39 226.97-20.8 226.63-20.01 226.29-19.21 226.29-18.31L226.29-18.31 226.29-14.6 236.98-14.6ZM256.34-22.14L253.34-22.14Q252.43-22.14 251.64-21.8 250.85-21.46 250.26-20.87 249.67-20.29 249.33-19.49 248.99-18.7 248.99-17.8L248.99-17.8 248.99 0 245.99 0 245.99-25 246.99-25 248.62-22.46Q249.65-23.85 251.2-24.67 252.75-25.49 254.58-25.49L254.58-25.49 256.34-25.49 256.34-22.14ZM277.04-25L264.39 10.01 261.49 10.01 265.93-2.15 257.83-25 260.83-25 267.35-6.05 267.45-4.76 267.54-6.05 274.04-25 277.04-25ZM311.73-9.16L311.73-8.11Q311.73-6.32 311.01-4.76 310.29-3.2 309.08-2.03 307.87-0.85 306.27-0.18 304.67 0.49 302.89 0.49L302.89 0.49 300.38 0.49Q298.59 0.49 296.99-0.18 295.39-0.85 294.19-2.03 292.98-3.2 292.26-4.76 291.54-6.32 291.54-8.11L291.54-8.11 291.54-9.5 294.69-10.01 294.69-8.11Q294.69-6.93 295.16-5.92 295.64-4.91 296.44-4.14 297.25-3.37 298.31-2.93 299.37-2.49 300.55-2.49L300.55-2.49 302.74-2.49Q303.92-2.49 304.96-2.93 306.01-3.37 306.82-4.14 307.63-4.91 308.1-5.92 308.58-6.93 308.58-8.11L308.58-8.11 308.58-9.16Q308.58-10.96 307.87-12.16 307.16-13.35 305.99-14.2 304.82-15.04 303.34-15.63 301.86-16.21 300.3-16.8 298.74-17.38 297.26-18.09 295.79-18.8 294.61-19.86 293.44-20.92 292.73-22.46 292.03-24 292.03-26.25L292.03-26.25 292.03-26.9Q292.03-28.69 292.7-30.25 293.37-31.81 294.54-32.98 295.71-34.16 297.29-34.83 298.86-35.5 300.64-35.5L300.64-35.5 302.89-35.5Q304.67-35.5 306.23-34.83 307.8-34.16 308.97-32.98 310.14-31.81 310.81-30.25 311.48-28.69 311.48-26.9L311.48-26.9 311.48-26 308.33-25.49 308.33-26.9Q308.33-28.08 307.89-29.09 307.46-30.1 306.7-30.86 305.94-31.62 304.93-32.06 303.92-32.5 302.74-32.5L302.74-32.5 300.79-32.5Q299.62-32.5 298.61-32.06 297.59-31.62 296.82-30.86 296.05-30.1 295.61-29.09 295.17-28.08 295.17-26.9L295.17-26.9 295.17-26.25Q295.17-24.56 295.88-23.41 296.59-22.27 297.76-21.45 298.93-20.63 300.41-20.03 301.89-19.43 303.45-18.81 305.01-18.19 306.49-17.44 307.97-16.7 309.14-15.61 310.31-14.53 311.02-12.96 311.73-11.4 311.73-9.16L311.73-9.16ZM329.33 0L326.59 0Q325.23 0 324.02-0.51 322.81-1.03 321.92-1.93 321.03-2.83 320.5-4.03 319.98-5.22 319.98-6.59L319.98-6.59 319.98-22.14 315.48-22.14 315.48-25 319.98-25 319.98-31.01 322.98-31.49 322.98-25 329.33-25 329.33-22.14 322.98-22.14 322.98-6.45Q322.98-5.69 323.26-5.04 323.54-4.39 324.03-3.91 324.52-3.42 325.18-3.14 325.84-2.86 326.59-2.86L326.59-2.86 329.33-2.86 329.33 0ZM351.54-6.86L351.54-6.86Q351.54-5.35 350.97-4 350.39-2.66 349.39-1.66 348.39-0.66 347.05-0.09 345.71 0.49 344.19 0.49L344.19 0.49 342.19 0.49Q340.68 0.49 339.33-0.09 337.99-0.66 336.99-1.66 335.99-2.66 335.42-4 334.84-5.35 334.84-6.86L334.84-6.86 334.84-18.14Q334.84-19.65 335.42-21 335.99-22.34 336.99-23.34 337.99-24.34 339.33-24.91 340.68-25.49 342.19-25.49L342.19-25.49 344.19-25.49Q345.71-25.49 347.05-24.91 348.39-24.34 349.39-23.34 350.39-22.34 350.97-21 351.54-19.65 351.54-18.14L351.54-18.14 351.54-6.86ZM348.54-6.69L348.54-18.31Q348.54-19.21 348.2-20.01 347.86-20.8 347.27-21.39 346.68-21.97 345.89-22.31 345.1-22.66 344.19-22.66L344.19-22.66 342.19-22.66Q341.29-22.66 340.49-22.31 339.7-21.97 339.12-21.39 338.53-20.8 338.19-20.01 337.85-19.21 337.85-18.31L337.85-18.31 337.85-6.69Q337.85-5.79 338.19-4.99 338.53-4.2 339.12-3.61 339.7-3.03 340.49-2.69 341.29-2.34 342.19-2.34L342.19-2.34 344.19-2.34Q345.1-2.34 345.89-2.69 346.68-3.03 347.27-3.61 347.86-4.2 348.2-4.99 348.54-5.79 348.54-6.69L348.54-6.69ZM367.9-22.14L364.89-22.14Q363.99-22.14 363.2-21.8 362.4-21.46 361.82-20.87 361.23-20.29 360.89-19.49 360.55-18.7 360.55-17.8L360.55-17.8 360.55 0 357.55 0 357.55-25 358.55-25 360.18-22.46Q361.21-23.85 362.76-24.67 364.31-25.49 366.14-25.49L366.14-25.49 367.9-25.49 367.9-22.14ZM388.6-6.86L388.6-6.86Q388.6-5.35 388.02-4 387.45-2.66 386.45-1.66 385.45-0.66 384.11-0.09 382.76 0.49 381.25 0.49L381.25 0.49 379.25 0.49Q377.73 0.49 376.39-0.09 375.05-0.66 374.05-1.66 373.05-2.66 372.47-4 371.9-5.35 371.9-6.86L371.9-6.86 371.9-18.14Q371.9-19.65 372.47-21 373.05-22.34 374.05-23.34 375.05-24.34 376.39-24.91 377.73-25.49 379.25-25.49L379.25-25.49 381.25-25.49Q382.76-25.49 384.11-24.91 385.45-24.34 386.45-23.34 387.45-22.34 388.02-21 388.6-19.65 388.6-18.14L388.6-18.14 388.6-12.26 374.9-12.26 374.9-6.69Q374.9-5.79 375.24-4.99 375.58-4.2 376.17-3.61 376.76-3.03 377.55-2.69 378.34-2.34 379.25-2.34L379.25-2.34 381.25-2.34Q382.15-2.34 382.95-2.69 383.74-3.03 384.33-3.61 384.91-4.2 385.25-4.99 385.59-5.79 385.59-6.69L385.59-6.69 385.59-8.35 388.6-7.86 388.6-6.86ZM385.59-14.6L385.59-18.31Q385.59-19.21 385.25-20.01 384.91-20.8 384.33-21.39 383.74-21.97 382.95-22.31 382.15-22.66 381.25-22.66L381.25-22.66 379.25-22.66Q378.34-22.66 377.55-22.31 376.76-21.97 376.17-21.39 375.58-20.8 375.24-20.01 374.9-19.21 374.9-18.31L374.9-18.31 374.9-14.6 385.59-14.6Z" opacity="1" transform="matrix(1,0,0,1,0,0)" fill="#d5cfd8" class="slogan-text-1" data-fill-palette-color="secondary" id="text-1"></path></svg></g></svg></g></svg></g></svg></g><g transform="matrix(1,0,0,1,111.25297397558516,0)"><svg viewBox="0 0 173.01405204882965 180.22297088419757" height="180.22297088419757" width="173.01405204882965"><g><svg xmlns="http://www.w3.org/2000/svg" xmlns:xlink="http://www.w3.org/1999/xlink" version="1.1" x="0" y="0" viewBox="8 7.5 24 25" enable-background="new 0 0 40 40" xml:space="preserve" height="180.22297088419757" width="173.01405204882965" class="icon-icon-0" data-fill-palette-color="accent" id="icon-0"><path fill-rule="evenodd" clip-rule="evenodd" d="M12 10.5v-3H8v2h2v13c0 1.1 0.9 2 2 2v5h2.3c-0.2 0.3-0.3 0.6-0.3 1 0 1.1 0.9 2 2 2 1.1 0 2-0.9 2-2 0-0.4-0.1-0.7-0.3-1h6.6c-0.2 0.3-0.3 0.6-0.3 1 0 1.1 0.9 2 2 2 1.1 0 2-0.9 2-2 0-0.4-0.1-0.7-0.3-1H30v-2H14v-3h16c1.1 0 2-0.9 2-2v-12H12zM14 22.5h-2v-2h2V22.5zM14 18.5h-2v-2h2V18.5zM14 14.5h-2v-2h2V14.5zM18 22.5h-2v-2h2V22.5zM18 18.5h-2v-2h2V18.5zM18 14.5h-2v-2h2V14.5zM22 22.5h-2v-2h2V22.5zM22 18.5h-2v-2h2V18.5zM22 14.5h-2v-2h2V14.5zM26 22.5h-2v-2h2V22.5zM26 18.5h-2v-2h2V18.5zM26 14.5h-2v-2h2V14.5zM30 22.5h-2v-2h2V22.5zM30 18.5h-2v-2h2V18.5zM30 14.5h-2v-2h2V14.5z" fill="#e8e8e8" data-fill-palette-color="accent"></path></svg></g></svg></g><g></g></svg></g><defs></defs></svg><rect width="318.7782743634875" height="247.2" fill="none" stroke="none" visibility="hidden"></rect></g></svg></g></svg>